<svg width="56" height="56" viewBox="0 0 56 56" fill="none" xmlns="http://www.w3.org/2000/svg">
<path d="M7.51187 56C11.4231 56 14.6431 52.9944 14.9888 49.1706H41.0113C41.3569 52.9944 44.5769 56 48.4881 56C52.6312 56 56 52.6313 56 48.4881C56 44.345 52.6312 40.9762 48.4881 40.9762C47.5213 40.9762 46.5981 41.1687 45.745 41.5012L31.9637 13.8819C34.09 12.5519 35.5119 10.1981 35.5119 7.51187C35.5119 3.36874 32.1431 0 28 0C23.8569 0 20.4881 3.36874 20.4881 7.51187C20.4881 10.1981 21.91 12.5562 24.0363 13.8819L10.255 41.5012C9.40188 41.1644 8.47875 40.9762 7.51187 40.9762C3.36875 40.9762 0 44.345 0 48.4881C0 52.6313 3.36875 56 7.51187 56ZM41.0113 47.8056H14.9888C14.875 46.5369 14.4419 45.36 13.7769 44.3538L22.5925 37.3013C23.9619 38.7231 25.8781 39.6112 28 39.6112C30.1262 39.6112 32.0425 38.7231 33.4075 37.3013L42.2231 44.3538C41.5537 45.36 41.125 46.5369 41.0113 47.8056ZM21.8531 32.0994C21.8531 28.7087 24.6094 25.9525 28 25.9525C31.3906 25.9525 34.1469 28.7087 34.1469 32.0994C34.1469 35.4856 31.3906 38.2462 28 38.2462C24.6094 38.2462 21.8531 35.4856 21.8531 32.0994ZM48.4881 42.3413C51.8787 42.3413 54.635 45.0975 54.635 48.4881C54.635 51.8744 51.8787 54.635 48.4881 54.635C45.0975 54.635 42.3412 51.8788 42.3412 48.4881C42.3412 45.1019 45.0975 42.3413 48.4881 42.3413ZM44.5244 42.1181C43.995 42.4506 43.5094 42.84 43.0763 43.2906L34.2606 36.2381C35.0481 35.0525 35.5075 33.6306 35.5075 32.1038C35.5075 28.1925 32.5019 24.9725 28.6781 24.6269V14.9975C29.4 14.9319 30.0912 14.7612 30.7387 14.5075L44.5244 42.1181ZM21.8531 7.51187C21.8531 4.12124 24.6094 1.365 28 1.365C31.3906 1.365 34.1469 4.12124 34.1469 7.51187C34.1469 10.9025 31.3906 13.6587 28 13.6587C24.6094 13.6587 21.8531 10.9025 21.8531 7.51187ZM25.2569 14.4988C25.9044 14.7525 26.5956 14.9231 27.3175 14.9888V24.6181C23.4938 24.9638 20.4881 28.1837 20.4881 32.095C20.4881 33.6219 20.9475 35.0437 21.735 36.2294L12.9194 43.2819C12.4862 42.8356 12.0006 42.4419 11.4713 42.1094L25.2569 14.4988ZM7.51187 42.3413C10.9025 42.3413 13.6588 45.0975 13.6588 48.4881C13.6588 51.8744 10.9025 54.635 7.51187 54.635C4.12125 54.635 1.365 51.8788 1.365 48.4881C1.365 45.1019 4.12125 42.3413 7.51187 42.3413Z" fill="#49586D"/>
<circle cx="48.5" cy="48.5" r="5.5" fill="#016BF3"/>
<circle cx="28" cy="32" r="3" fill="#016BF3"/>
</svg>
