<svg width="56" height="56" viewBox="0 0 56 56" fill="none" xmlns="http://www.w3.org/2000/svg">
<path d="M55.3175 49.1704H36.1944C34.755 49.1704 33.4644 50.0804 32.9788 51.4367C32.8781 51.721 32.6287 51.9048 32.3444 51.9048H23.66C23.3756 51.9048 23.1262 51.721 23.0256 51.4367C22.54 50.0804 21.2494 49.1704 19.81 49.1704H0.682499C0.306249 49.1704 0 49.4767 0 49.8529V52.5829C0 54.4642 1.53125 55.9954 3.4125 55.9954H52.5875C54.4688 55.9954 56 54.4642 56 52.5829V49.8529C56 49.4767 55.6938 49.1704 55.3175 49.1704ZM54.635 52.5873C54.635 53.716 53.7162 54.6348 52.5875 54.6348H3.4125C2.28375 54.6348 1.365 53.716 1.365 52.5873V50.5398H19.8056C20.6719 50.5398 21.4463 51.0867 21.735 51.896C22.0281 52.7185 22.8025 53.2698 23.6556 53.2698H32.34C33.1931 53.2698 33.9675 52.7185 34.2606 51.896C34.5494 51.0867 35.3281 50.5398 36.19 50.5398H54.6306V52.5873H54.635Z" fill="#49586D"/>
<path d="M52.5868 47.8056C52.9631 47.8056 53.2693 47.4993 53.2693 47.1231V18.4406C53.2693 17.2899 52.3681 16.3931 51.2218 16.3931H47.1224C46.7462 16.3931 46.4399 16.6993 46.4399 17.0756C46.4399 17.4518 46.7462 17.7581 47.1224 17.7581H51.2218C51.6112 17.7581 51.9043 18.0512 51.9043 18.4406V47.1231C51.8999 47.4993 52.2062 47.8056 52.5868 47.8056Z" fill="#49586D"/>
<path d="M8.87612 16.3887H4.77675C3.6305 16.3887 2.72925 17.2855 2.72925 18.4362V47.1187C2.72925 47.4949 3.0355 47.8012 3.41175 47.8012C3.788 47.8012 4.09425 47.4949 4.09425 47.1187V18.4362C4.09425 18.0468 4.38737 17.7537 4.77675 17.7537H8.87612C9.25237 17.7537 9.55862 17.4474 9.55862 17.0712C9.55862 16.6949 9.25675 16.3887 8.87612 16.3887Z" fill="#49586D"/>
<path d="M6.82862 20.488H8.87612C9.25237 20.488 9.55862 20.1818 9.55862 19.8055C9.55862 19.4293 9.25237 19.123 8.87612 19.123H6.14613C5.76988 19.123 5.46362 19.4293 5.46362 19.8055V47.1231C5.46362 47.4993 5.76988 47.8055 6.14613 47.8055H49.8524C50.2286 47.8055 50.5349 47.4993 50.5349 47.1231V19.8055C50.5349 19.4293 50.2286 19.123 49.8524 19.123H47.1224C46.7461 19.123 46.4399 19.4293 46.4399 19.8055C46.4399 20.1818 46.7461 20.488 47.1224 20.488H49.1699V46.4405H6.82862V20.488Z" fill="#49586D"/>
<path d="M38.929 42.3413C39.1083 42.3413 39.2833 42.2713 39.4102 42.14L44.8746 36.6756C45.0015 36.5488 45.0758 36.3737 45.0758 36.1944V0.682499C45.0758 0.306249 44.7696 0 44.3933 0H11.6115C11.2352 0 10.929 0.306249 10.929 0.682499V41.6588C10.929 42.035 11.2352 42.3413 11.6115 42.3413H38.929ZM39.6115 40.0094V36.8769H42.744L39.6115 40.0094ZM12.294 1.365H43.7065V35.5119H38.9246C38.5483 35.5119 38.2421 35.8181 38.2421 36.1944V40.9763H12.294V1.365Z" fill="#49586D"/>
<circle cx="36" cy="9" r="4" fill="#016BF3"/>
<circle cx="29.5" cy="15.5" r="2" stroke="#49586D"/>
</svg>
