<svg width="56" height="57" viewBox="0 0 56 57" fill="none" xmlns="http://www.w3.org/2000/svg">
<path d="M56 9.9747C56 8.09316 54.4692 6.56165 52.5885 6.56165C51.5301 6.56165 50.581 7.04736 49.9556 7.80873L43.57 4.40444C43.6618 4.09376 43.7143 3.76998 43.7143 3.43305C43.7143 1.5515 42.1835 0.0200195 40.3028 0.0200195C38.4221 0.0200195 36.8913 1.5515 36.8913 3.43305C36.8913 3.76998 36.9438 4.09814 37.0357 4.40444L30.6501 7.80873C30.0246 7.04736 29.0755 6.56165 28.0171 6.56165C26.9587 6.56165 26.0096 7.04736 25.3841 7.80873L18.9985 4.40444C19.0904 4.09376 19.1429 3.76998 19.1429 3.43305C19.1429 1.5515 17.6121 0.0200195 15.7314 0.0200195C13.8507 0.0200195 12.3199 1.5515 12.3199 3.43305C12.3199 3.76998 12.3724 4.09814 12.4642 4.40444L6.07862 7.80873C5.45318 7.04736 4.50409 6.56165 3.44566 6.56165C1.56497 6.56165 0.0341797 8.09316 0.0341797 9.9747C0.0341797 11.6243 1.20633 13.0027 2.76336 13.3221V21.3952C1.20633 21.7103 0.0341797 23.093 0.0341797 24.7426C0.0341797 26.6242 1.56497 28.1557 3.44566 28.1557C4.49972 28.1557 5.44444 27.6743 6.07426 26.9173L12.4642 30.326C12.3724 30.6323 12.3199 30.9605 12.3199 31.2974C12.3199 32.947 13.492 34.3254 15.0491 34.6448V42.7748C13.492 43.0899 12.3199 44.4726 12.3199 46.1222C12.3199 48.0038 13.8507 49.5353 15.7314 49.5353C16.8073 49.5353 17.7652 49.0364 18.3906 48.2576L24.7499 51.6356C24.6581 51.9419 24.6056 52.2701 24.6056 52.607C24.6056 54.4885 26.1364 56.02 28.0171 56.02C29.8978 56.02 31.4286 54.4885 31.4286 52.607C31.4286 52.2701 31.3761 51.9419 31.2842 51.6356L37.6436 48.2576C38.269 49.0364 39.2269 49.5353 40.3028 49.5353C42.1835 49.5353 43.7143 48.0038 43.7143 46.1222C43.7143 44.4726 42.5378 43.0942 40.9851 42.7748V34.6448C42.5422 34.3298 43.7143 32.947 43.7143 31.2974C43.7143 30.9605 43.6618 30.6323 43.57 30.326L49.9599 26.9173C50.5854 27.6743 51.5301 28.1557 52.5885 28.1557C54.4692 28.1557 56 26.6242 56 24.7426C56 23.093 54.8279 21.7147 53.2708 21.3952V13.3221C54.8279 13.0027 56 11.6243 56 9.9747ZM40.2984 1.37647C41.4269 1.37647 42.3453 2.29536 42.3453 3.42429C42.3453 4.55321 41.4269 5.47211 40.2984 5.47211C39.17 5.47211 38.2516 4.55321 38.2516 3.42429C38.2472 2.29536 39.17 1.37647 40.2984 1.37647ZM28.0084 7.9225C29.1368 7.9225 30.0552 8.84139 30.0552 9.97032C30.0552 11.0992 29.1368 12.0181 28.0084 12.0181C26.8799 12.0181 25.9615 11.0992 25.9615 9.97032C25.9615 8.84139 26.8799 7.9225 28.0084 7.9225ZM30.0552 24.7383C30.0552 25.8672 29.1368 26.7861 28.0084 26.7861C26.8799 26.7861 25.9615 25.8672 25.9615 24.7383C25.9615 23.6093 26.8799 22.6904 28.0084 22.6904C29.1368 22.6861 30.0552 23.6093 30.0552 24.7383ZM15.7183 1.37647C16.8467 1.37647 17.7651 2.29536 17.7651 3.42429C17.7651 4.55321 16.8467 5.47211 15.7183 5.47211C14.5898 5.47211 13.6714 4.55321 13.6714 3.42429C13.6714 2.29536 14.5898 1.37647 15.7183 1.37647ZM1.38127 9.9747C1.38127 8.84577 2.29975 7.92688 3.42816 7.92688C4.55657 7.92688 5.47506 8.84577 5.47506 9.9747C5.47506 11.1036 4.55657 12.0225 3.42816 12.0225C2.29975 12.0225 1.38127 11.1036 1.38127 9.9747ZM3.42816 26.7861C2.29975 26.7861 1.38127 25.8672 1.38127 24.7383C1.38127 23.6093 2.29975 22.6904 3.42816 22.6904C4.55657 22.6904 5.47506 23.6093 5.47506 24.7383C5.47506 25.8672 4.56095 26.7861 3.42816 26.7861ZM13.0897 29.1183L6.69969 25.7096C6.79154 25.4033 6.84402 25.0752 6.84402 24.7383C6.84402 23.0886 5.67187 21.7103 4.11483 21.3908V13.3177C5.67187 13.0027 6.84402 11.62 6.84402 9.97032C6.84402 9.63777 6.79154 9.31396 6.70407 9.00767L13.094 5.6034C13.7195 6.36039 14.6642 6.8417 15.7226 6.8417C16.7767 6.8417 17.7214 6.36039 18.3512 5.6034L24.7412 9.00767C24.6493 9.31396 24.6012 9.63777 24.6012 9.97032C24.6012 11.62 25.7734 12.9983 27.3304 13.3177V21.3908C25.7734 21.7059 24.6012 23.0886 24.6012 24.7383C24.6012 25.0752 24.6537 25.4033 24.7456 25.7096L18.3556 29.1183C17.7302 28.3613 16.7854 27.88 15.727 27.88C14.6642 27.88 13.7195 28.3613 13.0897 29.1183ZM13.6714 31.293C13.6714 30.1641 14.5898 29.2452 15.7183 29.2452C16.8467 29.2452 17.7651 30.1641 17.7651 31.293C17.7651 32.4219 16.8467 33.3408 15.7183 33.3408C14.5898 33.3452 13.6714 32.4219 13.6714 31.293ZM15.7183 48.1657C14.5898 48.1657 13.6714 47.2468 13.6714 46.1178C13.6714 44.9889 14.5898 44.07 15.7183 44.07C16.8467 44.07 17.7651 44.9889 17.7651 46.1178C17.7695 47.2468 16.8467 48.1657 15.7183 48.1657ZM28.0084 54.6548C26.8799 54.6548 25.9615 53.7359 25.9615 52.607C25.9615 51.4781 26.8799 50.5592 28.0084 50.5592C29.1368 50.5592 30.0552 51.4781 30.0552 52.607C30.0552 53.7315 29.1368 54.6548 28.0084 54.6548ZM36.8826 46.1178C36.8826 46.4373 36.9307 46.7436 37.0138 47.0367L30.6369 50.4235C30.0115 49.6665 29.0668 49.1852 28.0084 49.1852C26.9499 49.1852 26.0052 49.6665 25.3798 50.4235L19.0029 47.0367C19.086 46.7436 19.1341 46.4373 19.1341 46.1178C19.1341 44.4682 17.9576 43.0899 16.4049 42.7704V34.6404C17.962 34.3254 19.1341 32.9427 19.1341 31.293C19.1341 30.9561 19.0816 30.6279 18.9898 30.3216L25.3798 26.913C26.0052 27.67 26.9499 28.1513 28.0084 28.1513C29.0624 28.1513 30.0115 27.67 30.6369 26.913L37.0269 30.3216C36.9351 30.6279 36.8826 30.9561 36.8826 31.293C36.8826 32.9427 38.0547 34.321 39.6118 34.6404V42.7704C38.0591 43.0899 36.8826 44.4682 36.8826 46.1178ZM42.3453 46.1178C42.3453 47.2468 41.4269 48.1657 40.2984 48.1657C39.17 48.1657 38.2516 47.2468 38.2516 46.1178C38.2516 44.9889 39.17 44.07 40.2984 44.07C41.4269 44.07 42.3453 44.9889 42.3453 46.1178ZM40.2984 33.3452C39.17 33.3452 38.2516 32.4263 38.2516 31.2974C38.2516 30.1685 39.17 29.2496 40.2984 29.2496C41.4269 29.2496 42.3453 30.1685 42.3453 31.2974C42.3453 32.4263 41.4269 33.3452 40.2984 33.3452ZM49.1727 24.7383C49.1727 25.0752 49.2252 25.4033 49.317 25.7096L42.927 29.1183C42.3016 28.3613 41.3569 27.88 40.2984 27.88C39.2444 27.88 38.2953 28.3613 37.6698 29.1183L31.2799 25.7096C31.3717 25.4033 31.4242 25.0752 31.4242 24.7383C31.4242 23.0886 30.2521 21.7103 28.695 21.3908V13.3177C30.2521 13.0027 31.4242 11.62 31.4242 9.97032C31.4242 9.63777 31.3717 9.31396 31.2842 9.00767L37.6742 5.6034C38.2997 6.36039 39.2444 6.8417 40.3028 6.8417C41.3569 6.8417 42.3016 6.36039 42.9314 5.6034L49.3214 9.00767C49.2295 9.31396 49.1814 9.63777 49.1814 9.97032C49.1814 11.62 50.3536 12.9983 51.9106 13.3177V21.3908C50.3492 21.7059 49.1727 23.0886 49.1727 24.7383ZM54.6354 24.7383C54.6354 25.8672 53.717 26.7861 52.5885 26.7861C51.4601 26.7861 50.5416 25.8672 50.5416 24.7383C50.5416 23.6093 51.4601 22.6904 52.5885 22.6904C53.717 22.6861 54.6354 23.6093 54.6354 24.7383ZM52.5885 12.0225C51.4601 12.0225 50.5416 11.1036 50.5416 9.9747C50.5416 8.84577 51.4601 7.92688 52.5885 7.92688C53.717 7.92688 54.6354 8.84577 54.6354 9.9747C54.6354 11.1036 53.717 12.0225 52.5885 12.0225Z" fill="#49586D"/>
<circle cx="15" cy="30" r="6" fill="#48D3D8"/>
<ellipse cx="3.49786" cy="9.6275" rx="3.49786" ry="3.5" fill="#48D3D8"/>
</svg>
