<svg width="56" height="56" viewBox="0 0 56 56" fill="none" xmlns="http://www.w3.org/2000/svg">
<g clip-path="url(#clip0_7008_1144)">
<path d="M3.41223 31.4129C5.06147 31.4129 6.43948 30.2402 6.75883 28.6825H10.9935C11.3085 30.2402 12.6908 31.4129 14.3401 31.4129C14.5457 31.4129 14.7469 31.391 14.9438 31.356L17.9317 38.8034C16.9299 39.4598 16.3918 40.5887 16.3918 41.6607C16.3918 42.5184 16.7155 43.3148 17.2536 43.923L13.0714 49.5063C12.6296 49.2963 12.1353 49.1738 11.6147 49.1738C9.73359 49.1738 8.20246 50.7053 8.20246 52.5868C8.20246 54.4683 9.73359 55.9998 11.6147 55.9998C13.4958 55.9998 15.0269 54.4683 15.0269 52.5868C15.0269 51.7204 14.6988 50.9284 14.1651 50.3246L18.3473 44.7456C18.7891 44.9556 19.2791 45.0738 19.8084 45.0738C20.1846 45.0738 20.4908 44.7675 20.4908 44.3912C20.4908 44.0149 20.1846 43.7086 19.8084 43.7086C18.9466 43.7086 17.7611 43.0391 17.7611 41.6607C17.7611 40.2124 19.0428 39.6129 19.8084 39.6129C20.1846 39.6129 20.4908 39.3066 20.4908 38.9303C20.4908 38.554 20.1846 38.239 19.8084 38.2477C19.5984 38.2521 19.4016 38.2784 19.2091 38.309L16.2168 30.8529C17.1442 30.2403 17.7611 29.1901 17.7611 27.9999C17.7611 26.8097 17.1486 25.7596 16.2168 25.147L19.2091 17.6908C19.4016 17.7258 19.5984 17.7477 19.8084 17.7521C20.1846 17.7608 20.4908 17.4458 20.4908 17.0695C20.4908 16.6932 20.1846 16.3869 19.8084 16.3869C19.0428 16.3869 17.7611 15.7874 17.7611 14.3391C17.7611 12.9607 18.9466 12.2912 19.8084 12.2912C20.1846 12.2912 20.4908 11.9849 20.4908 11.6086C20.4908 11.2323 20.1846 10.926 19.8084 10.926C19.2791 10.926 18.7891 11.0486 18.3473 11.2542L14.1651 5.67523C14.6988 5.07139 15.0269 4.2794 15.0269 3.41302C15.0269 1.53148 13.4958 0 11.6147 0C9.73359 0 8.20246 1.53148 8.20246 3.41302C8.20246 5.29456 9.73359 6.82603 11.6147 6.82603C12.1353 6.82603 12.6296 6.70351 13.0714 6.49348L17.2536 12.0768C16.7155 12.6851 16.3918 13.4814 16.3918 14.3391C16.3918 15.4067 16.9299 16.54 17.9317 17.1964L14.9438 24.6438C14.7469 24.6088 14.5457 24.5869 14.3401 24.5869C12.6908 24.5869 11.3128 25.7596 10.9935 27.3173H6.75883C6.44385 25.7596 5.06147 24.5869 3.41223 24.5869C1.53113 24.5869 0 26.1184 0 27.9999C0 29.8814 1.53113 31.4129 3.41223 31.4129ZM11.6103 54.639C10.4817 54.639 9.56298 53.7201 9.56298 52.5912C9.56298 51.4623 10.4817 50.5434 11.6103 50.5434C12.739 50.5434 13.6576 51.4623 13.6576 52.5912C13.6576 53.7201 12.739 54.639 11.6103 54.639ZM11.6103 5.46083C10.4817 5.46083 9.56298 4.54194 9.56298 3.41302C9.56298 2.28409 10.4817 1.36521 11.6103 1.36521C12.739 1.36521 13.6576 2.28409 13.6576 3.41302C13.6576 4.54194 12.739 5.46083 11.6103 5.46083ZM14.3401 25.9521C15.4687 25.9521 16.3874 26.871 16.3874 27.9999C16.3874 29.1288 15.4687 30.0477 14.3401 30.0477C13.2114 30.0477 12.2928 29.1288 12.2928 27.9999C12.2928 26.871 13.2114 25.9521 14.3401 25.9521ZM3.41223 25.9521C4.54088 25.9521 5.45956 26.871 5.45956 27.9999C5.45956 29.1288 4.54088 30.0477 3.41223 30.0477C2.28357 30.0477 1.36489 29.1288 1.36489 27.9999C1.36489 26.871 2.28357 25.9521 3.41223 25.9521Z" fill="#49586D"/>
<path d="M36.1922 12.2912C37.054 12.2912 38.2395 12.9607 38.2395 14.3391C38.2395 15.7874 36.9578 16.3869 36.1922 16.3869C35.816 16.3869 35.5098 16.6932 35.5098 17.0695C35.5098 17.4458 35.816 17.7608 36.1922 17.7521C36.4022 17.7477 36.5991 17.7215 36.7915 17.6908L39.7838 25.147C38.8564 25.7596 38.2395 26.8097 38.2395 27.9999C38.2395 29.1901 38.852 30.2403 39.7838 30.8529L36.7915 38.309C36.5991 38.274 36.4022 38.2521 36.1922 38.2477C35.816 38.239 35.5098 38.554 35.5098 38.9303C35.5098 39.3066 35.816 39.6129 36.1922 39.6129C36.9578 39.6129 38.2395 40.2124 38.2395 41.6607C38.2395 43.0391 37.054 43.7086 36.1922 43.7086C35.816 43.7086 35.5098 44.0149 35.5098 44.3912C35.5098 44.7675 35.816 45.0738 36.1922 45.0738C36.7215 45.0738 37.2115 44.9513 37.6533 44.7456L41.8355 50.3246C41.3018 50.9284 40.9737 51.7204 40.9737 52.5868C40.9737 54.4683 42.5048 55.9998 44.3859 55.9998C46.267 55.9998 47.7981 54.4683 47.7981 52.5868C47.7981 50.7053 46.267 49.1738 44.3859 49.1738C43.8653 49.1738 43.371 49.2963 42.9292 49.5063L38.747 43.923C39.2851 43.3148 39.6088 42.5184 39.6088 41.6607C39.6088 40.5931 39.0707 39.4598 38.0689 38.8034L41.0568 31.356C41.2537 31.391 41.4549 31.4129 41.6605 31.4129C43.3098 31.4129 44.6878 30.2402 45.0071 28.6825H49.2418C49.5568 30.2402 50.9391 31.4129 52.5884 31.4129C54.4695 31.4129 56.0006 29.8814 56.0006 27.9999C56.0006 26.1184 54.4695 24.5869 52.5884 24.5869C50.9391 24.5869 49.5611 25.7596 49.2418 27.3173H45.0071C44.6922 25.7596 43.3098 24.5869 41.6605 24.5869C41.4549 24.5869 41.2537 24.6088 41.0568 24.6438L38.0689 17.1964C39.0707 16.54 39.6088 15.4111 39.6088 14.3391C39.6088 13.4814 39.2851 12.6851 38.747 12.0768L42.9292 6.49348C43.371 6.70351 43.8653 6.82603 44.3859 6.82603C46.267 6.82603 47.7981 5.29456 47.7981 3.41302C47.7981 1.53148 46.267 0 44.3859 0C42.5048 0 40.9737 1.53148 40.9737 3.41302C40.9737 4.2794 41.3018 5.07139 41.8355 5.67523L37.6533 11.2542C37.2115 11.0442 36.7215 10.926 36.1922 10.926C35.816 10.926 35.5098 11.2323 35.5098 11.6086C35.5098 11.9849 35.816 12.2912 36.1922 12.2912ZM44.3859 50.539C45.5146 50.539 46.4333 51.4579 46.4333 52.5868C46.4333 53.7157 45.5146 54.6346 44.3859 54.6346C43.2573 54.6346 42.3386 53.7157 42.3386 52.5868C42.3386 51.4579 43.2573 50.539 44.3859 50.539ZM52.584 25.9521C53.7127 25.9521 54.6313 26.871 54.6313 27.9999C54.6313 29.1288 53.7127 30.0477 52.584 30.0477C51.4554 30.0477 50.5367 29.1288 50.5367 27.9999C50.5367 26.871 51.451 25.9521 52.584 25.9521ZM41.6561 25.9521C42.7848 25.9521 43.7035 26.871 43.7035 27.9999C43.7035 29.1288 42.7848 30.0477 41.6561 30.0477C40.5275 30.0477 39.6088 29.1288 39.6088 27.9999C39.6088 26.871 40.5275 25.9521 41.6561 25.9521ZM44.3859 1.36083C45.5146 1.36083 46.4333 2.27971 46.4333 3.40864C46.4333 4.53756 45.5146 5.45645 44.3859 5.45645C43.2573 5.45645 42.3386 4.53756 42.3386 3.40864C42.3386 2.27971 43.2573 1.36083 44.3859 1.36083Z" fill="#49586D"/>
<circle cx="45" cy="50" r="6" fill="#816AA8"/>
<circle cx="3.5" cy="28" r="3.5" fill="#816AA8"/>
<path d="M21.1689 6.82615H21.8513V47.1261C21.8513 50.5172 24.6074 53.2739 27.9977 53.2739C31.3881 53.2739 34.1441 50.5172 34.1441 47.1261V6.82615H34.8265C35.2028 6.82615 35.509 6.51985 35.509 6.14355V3.41313C35.509 3.03683 35.2028 2.73053 34.8265 2.73053H21.1689C20.7927 2.73053 20.4865 3.03683 20.4865 3.41313V6.14355C20.4865 6.51985 20.7927 6.82615 21.1689 6.82615ZM32.7792 8.19136H25.2679C24.8917 8.19136 24.5855 8.49765 24.5855 8.87396C24.5855 9.25027 24.8917 9.55656 25.2679 9.55656H32.7792V47.1217C32.7792 49.7559 30.6356 51.9043 27.9977 51.9043C25.3642 51.9043 23.2162 49.7602 23.2162 47.1217V6.82177H32.7748V8.19136H32.7792ZM21.8513 4.09574H34.1441V5.46094H21.8513V4.09574Z" fill="#49586D"/>
</g>
<defs>
<clipPath id="clip0_7008_1144">
<rect width="56" height="56" fill="white"/>
</clipPath>
</defs>
</svg>
